<?xml version="1.0" standalone="no"?>
<!DOCTYPE svg PUBLIC "-//W3C//DTD SVG 20010904//EN"
 "http://www.w3.org/TR/2001/REC-SVG-20010904/DTD/svg10.dtd">
<svg version="1.0" xmlns="http://www.w3.org/2000/svg"
 width="700.000000pt" height="700.000000pt" viewBox="0 0 700.000000 700.000000"
 preserveAspectRatio="xMidYMid meet">
<metadata>
Created by potrace 1.14, written by Peter Selinger 2001-2017
</metadata>
<g transform="translate(0.000000,700.000000) scale(0.100000,-0.100000)"
fill="#000000" stroke="none">
<path d="M3445 6977 c-204 -68 -379 -201 -444 -337 -15 -30 -33 -56 -41 -57
-13 -2 -92 -16 -160 -29 -14 -3 -74 -17 -135 -31 -60 -15 -112 -28 -115 -28
-35 -9 -116 -33 -205 -62 -322 -103 -649 -261 -895 -431 -170 -118 -213 -154
-370 -312 l-115 -116 -57 2 c-70 2 -195 -18 -262 -40 -222 -75 -441 -267 -573
-501 -64 -115 -73 -153 -73 -328 l0 -155 37 -72 c40 -78 135 -183 223 -248
114 -83 311 -164 468 -193 39 -7 72 -18 73 -24 1 -5 2 -21 4 -35 1 -14 5 -77
9 -140 4 -63 9 -144 11 -180 8 -107 15 -229 20 -330 3 -52 7 -115 10 -140 2
-25 7 -83 10 -130 4 -47 8 -107 11 -135 2 -27 6 -84 9 -125 3 -41 7 -86 10
-100 2 -14 7 -70 11 -125 3 -55 8 -107 9 -116 2 -9 6 -52 10 -95 4 -43 8 -88
10 -99 1 -11 6 -56 11 -100 4 -44 8 -82 9 -85 1 -3 5 -32 9 -65 5 -33 10 -67
11 -75 1 -8 6 -35 9 -60 47 -309 170 -691 299 -929 79 -146 189 -271 274 -308
26 -12 124 -52 217 -89 93 -36 220 -91 284 -121 166 -78 193 -90 253 -112 58
-22 234 -70 284 -77 17 -3 62 -11 100 -19 39 -7 95 -16 126 -20 31 -3 67 -8
80 -10 97 -20 700 -27 904 -12 55 4 125 10 155 12 30 3 87 7 125 10 77 5 176
15 215 20 14 2 50 7 80 10 30 4 57 8 60 10 3 2 26 6 50 10 25 3 52 8 60 10 8
2 30 7 48 10 68 11 273 85 363 130 86 43 228 129 239 145 3 3 12 9 20 12 29
11 228 178 305 255 186 187 349 446 428 683 43 127 94 333 111 445 4 29 19
115 21 125 1 3 5 32 9 65 4 32 10 68 12 79 2 11 6 40 9 65 7 62 13 109 19 151
3 19 8 60 11 90 4 30 8 66 10 80 2 14 6 50 10 80 3 30 8 71 10 90 3 19 7 53 9
75 14 118 18 152 21 175 2 14 6 61 10 105 3 44 8 96 10 115 8 62 22 255 30
395 3 55 8 123 10 150 2 28 7 100 10 160 10 194 14 238 22 245 5 4 40 19 78
35 39 16 75 33 80 37 6 5 39 27 74 50 58 38 197 167 246 228 76 95 147 234
170 335 81 343 -219 685 -711 810 -79 20 -98 28 -121 56 -64 76 -141 153 -217
218 -77 65 -249 191 -260 191 -3 0 -30 15 -59 34 -85 54 -315 164 -432 206
-33 12 -69 25 -80 30 -62 28 -308 96 -465 129 -81 18 -272 51 -291 51 -3 0 -9
24 -12 54 -3 29 -15 73 -27 97 -27 54 -111 137 -165 164 -22 11 -42 23 -45 26
-3 3 -36 16 -75 29 -63 22 -89 25 -270 27 -187 3 -205 1 -270 -20z m-2517
-1459 c-3 -9 -25 -13 -64 -14 -213 -5 -385 -82 -550 -248 -241 -242 -332 -541
-227 -750 29 -59 16 -51 -15 9 -42 80 -55 179 -38 289 11 65 103 268 136 296
3 3 14 18 24 34 31 49 169 187 231 231 89 64 189 111 287 137 103 27 222 36
216 16z m5437 -80 c137 -66 261 -199 302 -324 53 -158 -14 -359 -172 -519 -63
-64 -148 -125 -173 -125 -6 0 -1 24 10 53 55 142 80 275 80 431 0 89 -3 131
-18 209 -11 58 -39 153 -68 224 -18 46 -31 83 -29 83 2 0 33 -14 68 -32z
m-5550 -88 c-3 -5 -27 -10 -53 -9 -38 1 -42 2 -22 9 37 12 82 12 75 0z m-76
-151 c-127 -293 -137 -595 -30 -889 17 -46 31 -85 31 -87 0 -1 -35 10 -77 25
-213 75 -360 213 -402 377 -68 258 223 660 481 664 l37 1 -40 -91z m5970 -27
c48 -93 55 -188 22 -297 -11 -38 -50 -117 -51 -104 0 4 9 27 20 51 45 103 45
237 0 343 -23 55 -18 59 9 7z m181 -51 c47 -148 9 -316 -111 -492 -44 -66
-237 -265 -246 -255 -3 3 10 18 28 33 158 131 273 299 315 462 27 109 22 203
-21 326 -6 16 -5 17 4 5 6 -8 20 -44 31 -79z m-6670 -286 c-11 -38 -19 -90
-19 -115 -1 -43 17 -133 34 -174 6 -13 5 -17 -3 -13 -20 13 -46 112 -46 177 0
41 9 90 23 133 13 38 24 67 26 65 2 -2 -5 -34 -15 -73z m50 -359 c0 -12 -5 -7
-19 24 -11 24 -11 24 3 6 9 -11 16 -24 16 -30z m6241 -120 c-18 -22 -197 -109
-212 -104 -8 3 9 12 36 21 28 10 79 35 115 57 73 44 77 46 61 26z"/>
</g>
</svg>
