<?xml version="1.0" encoding="utf-8"?>
<!-- Generator: Adobe Illustrator 24.1.0, SVG Export Plug-In . SVG Version: 6.00 Build 0)  -->
<svg version="1.1" id="Layer_1" xmlns="http://www.w3.org/2000/svg" xmlns:xlink="http://www.w3.org/1999/xlink" x="0px" y="0px"
	 viewBox="0 0 8192 8192" style="enable-background:new 0 0 8192 8192;" xml:space="preserve">
<style type="text/css">
	.st0{fill:none;stroke:#9C0000;stroke-width:164.9778;stroke-miterlimit:5.6889;}
	.st1{fill:none;stroke:#1A1A1A;stroke-width:56.8889;stroke-miterlimit:5.6889;}
	.st2{fill:url(#SVGID_1_);stroke:#1A1A1A;stroke-width:34.1333;stroke-miterlimit:5.6889;}
	.st3{fill:url(#SVGID_2_);stroke:#1A1A1A;stroke-width:34.1333;stroke-miterlimit:5.6889;}
	.st4{fill:url(#SVGID_3_);stroke:#4F272D;stroke-width:34.1333;stroke-miterlimit:5.6889;}
	.st5{fill:#FFFFFF;}
	.st6{fill:url(#SVGID_4_);stroke:#4F272D;stroke-width:34.1333;stroke-miterlimit:5.6889;}
	.st7{fill:url(#SVGID_5_);}
	.st8{fill:url(#SVGID_6_);}
	.st9{fill:url(#SVGID_7_);}
	.st10{fill:#4D4D4D;}
	.st11{fill:#333333;stroke:#1A1A1A;stroke-width:34.1333;stroke-miterlimit:5.6889;}
	.st12{fill:url(#SVGID_8_);stroke:#1A1A1A;stroke-width:34.1333;stroke-miterlimit:5.6889;}
	.st13{fill:url(#SVGID_9_);}
</style>
<g id="Layer_6">
</g>
<g id="Layer_5">
</g>
<g id="Layer_3">
</g>
<g id="Layer_4">
	<path class="st0" d="M6483,4892.6c74.4,14.7,273.2,44.4,489.1-42.8c217.2-87.7,439.1-288.6,426.7-464.7
		c-16.2-230.5-437.2-471.8-1064.8-442.3"/>
	<path class="st1" d="M6418,4976.1c88.6,16.5,325.5,49.5,583.5-51.4c259.4-101.5,525-332.7,511-534.4
		c-18.2-264-519.2-538.4-1267.7-501.6"/>
	<path class="st1" d="M6590.9,4811.8c56.9,13.2,208.8,40.3,372.9-32.1c164.9-72.9,332.4-242.3,321.3-392.7
		c-14.5-196.8-337.9-406.6-816.5-387.1"/>
	<path class="st0" d="M1506.7,4098.8c-74.8-12.1-274.5-34.8-487.3,60c-214,95.3-428.7,303.8-410.1,479.4
		c24.3,229.8,453.5,456.1,1079.7,404.6"/>
	<path class="st1" d="M1568.7,4012.9c-89.1-13.4-327.1-38.1-581.3,71.9c-255.7,110.6-513,350.9-491.9,552
		c27.5,263.2,537.8,519.9,1284.6,456.8"/>
	<path class="st1" d="M1401.7,4183.3c-57.3-11.2-210.1-33-371.5,45.2c-162.2,78.6-323.7,253.8-307.4,403.7
		c21.4,196.2,352,394.5,829.6,358.2"/>
	
		<linearGradient id="SVGID_1_" gradientUnits="userSpaceOnUse" x1="1817.4987" y1="-2855.9285" x2="6367.4023" y2="5024.7358" gradientTransform="matrix(0.5689 0 0 -0.5689 1593.3866 6253.7246)">
		<stop  offset="6.326090e-02" style="stop-color:#7F0000"/>
		<stop  offset="0.4907" style="stop-color:#810000"/>
		<stop  offset="0.6446" style="stop-color:#880100"/>
		<stop  offset="0.7544" style="stop-color:#930300"/>
		<stop  offset="0.8431" style="stop-color:#A40500"/>
		<stop  offset="0.9183" style="stop-color:#BA0800"/>
		<stop  offset="0.9831" style="stop-color:#D40B00"/>
	</linearGradient>
	<path class="st2" d="M1280.1,4779.1c72.5,543.5,60.5,658.5,114.9,1127.7c61.1,526.6,94,795.4,208.8,1066.2
		c197.4,465.1,406,553.9,459.4,574.1c61.7,23.2,113.7,29,323.7,92.3c184.9,55.7,314.9,102.5,344.6,112.8
		c223.9,77.6,768.9,167.5,1524.6,133.3c706.5-32,1077.8-48.9,1514.1-276.8c173.3-90.5,414.4-219.7,616.1-481.8
		c203.5-264.6,254-572.8,355-1189.1c53.6-327.2,77.5-631.6,125.3-1240.4c10.2-130.3,15.2-195.8,10.5-215.3
		c-226.6-919.3-5442.8-843.4-5628.3,30.8C1243,4540.1,1248.2,4539.8,1280.1,4779.1z"/>
	
		<linearGradient id="SVGID_2_" gradientUnits="userSpaceOnUse" x1="2260.3601" y1="-1505.4991" x2="3719.4846" y2="4903.6143" gradientTransform="matrix(0.5287 0.1578 0.1562 -0.5329 2213.3921 4922.2339)">
		<stop  offset="6.326090e-02" style="stop-color:#333333"/>
		<stop  offset="0.609" style="stop-color:#313131"/>
		<stop  offset="0.8053" style="stop-color:#2A2A2A"/>
		<stop  offset="0.945" style="stop-color:#1F1F1F"/>
		<stop  offset="0.9817" style="stop-color:#1A1A1A"/>
	</linearGradient>
	<path class="st3" d="M6878.4,4396.9C6901,5095,5657.3,5701.8,4100.4,5752.4C2543.6,5803,1263,5278,1240.4,4580
		c-22.6-698.1,1221.1-1304.9,2777.9-1355.5C5575.2,3173.9,6855.7,3698.8,6878.4,4396.9z"/>
	
		<linearGradient id="SVGID_3_" gradientUnits="userSpaceOnUse" x1="2159.5259" y1="-1181.7465" x2="3618.7148" y2="5227.6489" gradientTransform="matrix(0.5071 0.1455 0.1504 -0.4936 2324.4216 5080.1406)">
		<stop  offset="6.326090e-02" style="stop-color:#2A0000"/>
		<stop  offset="0.5534" style="stop-color:#2C0000"/>
		<stop  offset="0.7299" style="stop-color:#330000"/>
		<stop  offset="0.8557" style="stop-color:#3E0000"/>
		<stop  offset="0.9568" style="stop-color:#4F0000"/>
		<stop  offset="0.9831" style="stop-color:#550000"/>
	</linearGradient>
	<path class="st4" d="M6798.6,4414.1c21,646.3-1173,1209.5-2667,1258c-1493.9,48.5-2722-436.1-2743-1082.4
		c-21-646.3,1173-1209.5,2667-1258C5549.6,3283.3,6777.6,3767.9,6798.6,4414.1z"/>
</g>
<g id="Layer_1_1_">
	<g>
		<g>
			<path class="st5" d="M4553,8025.5c3.5,1,5.1-4.4,1.6-5.5C4551.1,8019,4549.5,8024.5,4553,8025.5L4553,8025.5z"/>
		</g>
	</g>
	
		<linearGradient id="SVGID_4_" gradientUnits="userSpaceOnUse" x1="3763.9431" y1="-111.2962" x2="4733.5928" y2="6010.8311" gradientTransform="matrix(0.5462 0.159 0.159 -0.5462 1270.6385 5457.6514)">
		<stop  offset="6.179800e-02" style="stop-color:#8B272D"/>
		<stop  offset="0.5225" style="stop-color:#8D272D"/>
		<stop  offset="0.6884" style="stop-color:#94272D"/>
		<stop  offset="0.8067" style="stop-color:#9F272D"/>
		<stop  offset="0.9017" style="stop-color:#B0272D"/>
		<stop  offset="0.9831" style="stop-color:#C6272D"/>
	</linearGradient>
	<path class="st6" d="M6969.3,4415.3c26.2,714.4-1255,1341.3-2861.5,1400.3c-1606.5,58.9-2930.2-472.4-2956.4-1186.9
		s1254.9-1341.3,2861.5-1400.3C5619.5,3169.5,6943.1,3700.9,6969.3,4415.3z"/>
	
		<linearGradient id="SVGID_5_" gradientUnits="userSpaceOnUse" x1="3670.5823" y1="668.7699" x2="4469.7456" y2="5714.4883" gradientTransform="matrix(0.5462 0.159 0.159 -0.5462 1270.6385 5457.6514)">
		<stop  offset="6.179800e-02" style="stop-color:#92272D"/>
		<stop  offset="0.5676" style="stop-color:#94272D"/>
		<stop  offset="0.7498" style="stop-color:#9B272D"/>
		<stop  offset="0.8791" style="stop-color:#A6272D"/>
		<stop  offset="0.9726" style="stop-color:#B5272D"/>
		<stop  offset="0.9831" style="stop-color:#C6272D"/>
	</linearGradient>
	<path class="st7" d="M6350.7,4275.3c22.2,604.4-1011.7,1133-2309.3,1180.6s-2367.4-403.8-2389.6-1008.2
		c-22.2-604.4,1011.7-1133,2309.3-1180.6S6328.5,3670.9,6350.7,4275.3z"/>
	
		<linearGradient id="SVGID_6_" gradientUnits="userSpaceOnUse" x1="489.9606" y1="3497.8025" x2="7648.4736" y2="3497.8025" gradientTransform="matrix(0.5462 0.159 0.159 -0.5462 1270.6385 5457.6514)">
		<stop  offset="6.179800e-02" style="stop-color:#A5272D"/>
		<stop  offset="0.6235" style="stop-color:#A7272D"/>
		<stop  offset="0.8256" style="stop-color:#AE272D"/>
		<stop  offset="0.9693" style="stop-color:#B9272D"/>
		<stop  offset="0.9831" style="stop-color:#BB272D"/>
	</linearGradient>
	<path class="st8" d="M6173.4,4116.2c17.6,480.3-919,904.5-2092,947.5c-1173,43-2138.2-311.4-2155.8-791.7s919-904.4,2092-947.4
		C5190.5,3281.5,6155.7,3635.9,6173.4,4116.2z"/>
	
		<linearGradient id="SVGID_7_" gradientUnits="userSpaceOnUse" x1="1541.782" y1="1612.8489" x2="2003.2189" y2="5765.189" gradientTransform="matrix(0.4409 0.1124 0.1303 -0.393 2822.9309 5321.9946)">
		<stop  offset="6.332226e-02" style="stop-color:#B2272D"/>
		<stop  offset="0.5631" style="stop-color:#B4272D"/>
		<stop  offset="0.7432" style="stop-color:#BB272D"/>
		<stop  offset="0.8711" style="stop-color:#C6272D"/>
		<stop  offset="0.9742" style="stop-color:#D7272D"/>
		<stop  offset="0.9831" style="stop-color:#D9272D"/>
	</linearGradient>
	<path class="st9" d="M5801.8,4008.5c12.7,345-745.6,652.9-1693.8,687.7s-1726.9-216.7-1739.6-561.7
		c-12.7-345,745.7-653,1693.8-687.7S5789.1,3663.5,5801.8,4008.5z"/>
	<path class="st10" d="M4116.5,3965.6"/>
	<path class="st11" d="M3894.4,3510.6c-6,21.3,14,23.8,38.9,113.9c10.8,39.3,16.7,73.8,38.4,157.6c10.7,41.7,13.3,48.4,20,57.1
		c34.8,44.7,105.8,41.7,138.4,40.3c30-1.3,108.7-4.6,156.8-60.5c19.4-22.6,13-29.5,39.6-98.3c29.8-77,54.3-138.5,108.6-184.5
		c41.2-34.8,67-33.3,66.3-44.3C4498.1,3440.3,3926.4,3397.8,3894.4,3510.6z"/>
	
		<linearGradient id="SVGID_8_" gradientUnits="userSpaceOnUse" x1="2721.6345" y1="5172.9995" x2="4919.5293" y2="5172.9995" gradientTransform="matrix(0.5462 0.159 0.159 -0.5462 1270.6385 5457.6514)">
		<stop  offset="6.332226e-02" style="stop-color:#B2272D"/>
		<stop  offset="0.5631" style="stop-color:#B4272D"/>
		<stop  offset="0.7432" style="stop-color:#BB272D"/>
		<stop  offset="0.8711" style="stop-color:#C6272D"/>
		<stop  offset="0.9742" style="stop-color:#D7272D"/>
		<stop  offset="0.9831" style="stop-color:#D9272D"/>
	</linearGradient>
	<path class="st12" d="M4831.8,3216.9c7.2,135.8-274.2,259.5-306.6,273.3c-58.3,24.9-166.5,62.2-332.9,59.7
		c-166.2-2.5-288.2-33.3-315.8-41.8c-93.6-28.8-346.3-106.4-355.4-221.6c-10.8-136.4,321-316.1,639.5-333
		C4522.5,2934.3,4823,3052.3,4831.8,3216.9z"/>
	
		<linearGradient id="SVGID_9_" gradientUnits="userSpaceOnUse" x1="2923.2075" y1="5172.9985" x2="4718.0264" y2="5172.9985" gradientTransform="matrix(0.5462 0.159 0.159 -0.5462 1270.6385 5457.6514)">
		<stop  offset="6.179800e-02" style="stop-color:#3D0000"/>
		<stop  offset="0.5194" style="stop-color:#3B0000"/>
		<stop  offset="0.6842" style="stop-color:#340000"/>
		<stop  offset="0.8017" style="stop-color:#290000"/>
		<stop  offset="0.896" style="stop-color:#180000"/>
		<stop  offset="0.9765" style="stop-color:#020000"/>
		<stop  offset="0.9831" style="stop-color:#000000"/>
	</linearGradient>
	<path class="st13" d="M4714.6,3211.1c6.4,120.2-227.8,230.4-523.1,246.1c-295.2,15.7-539.8-69.1-546.2-189.3
		s227.8-230.4,523.1-246.1S4708.2,3090.9,4714.6,3211.1z"/>
</g>
</svg>
