<?xml version="1.0" encoding="utf-8"?>
<!-- Generator: Adobe Illustrator 24.1.0, SVG Export Plug-In . SVG Version: 6.00 Build 0)  -->
<svg version="1.1" xmlns="http://www.w3.org/2000/svg" xmlns:xlink="http://www.w3.org/1999/xlink" x="0px" y="0px"
	 viewBox="0 0 14400 14400" style="enable-background:new 0 0 14400 14400;" xml:space="preserve">
<style type="text/css">
	.st0{fill:none;stroke:#9C0000;stroke-width:290;stroke-miterlimit:10;}
	.st1{fill:none;stroke:#1A1A1A;stroke-width:100;stroke-miterlimit:10;}
	.st2{fill:url(#SVGID_1_);stroke:#1A1A1A;stroke-width:60;stroke-miterlimit:10;}
	.st3{fill:url(#SVGID_2_);stroke:#4F272D;stroke-width:60;stroke-miterlimit:10;}
	.st4{fill:url(#SVGID_3_);}
	.st5{fill:url(#SVGID_4_);}
	.st6{fill:url(#SVGID_5_);}
	.st7{fill:url(#SVGID_6_);stroke:#1A1A1A;stroke-width:60;stroke-miterlimit:10;}
	.st8{fill:url(#SVGID_7_);stroke:#4F272D;stroke-width:60;stroke-miterlimit:10;}
	.st9{fill:#FFFFFF;}
	.st10{fill:#4D4D4D;}
	.st11{fill:#333333;stroke:#1A1A1A;stroke-width:60;stroke-miterlimit:10;}
	.st12{fill:url(#SVGID_8_);stroke:#1A1A1A;stroke-width:60;stroke-miterlimit:10;}
	.st13{fill:url(#SVGID_9_);}
</style>
<g id="Layer_6">
</g>
<g id="Layer_5">
</g>
<g id="Layer_3">
</g>
<g id="Layer_4">
	<path class="st0" d="M11395.9,8600.2c130.7,25.8,480.2,78,859.8-75.3c381.8-154.2,771.8-507.3,750-816.9
		c-28.5-405.1-768.6-829.3-1871.7-777.4"/>
	<path class="st1" d="M11281.7,8747.1c155.7,29,572.2,87.1,1025.7-90.4c456-178.5,922.8-584.8,898.3-939.4
		c-32-464-912.6-946.4-2228.4-881.8"/>
	<path class="st1" d="M11585.6,8458.2c100,23.2,367.1,70.9,655.4-56.5c289.9-128.1,584.3-425.9,564.8-690.3
		c-25.4-346-594-714.7-1435.3-680.5"/>
	<path class="st0" d="M2648.5,7204.9c-131.5-21.2-482.6-61.1-856.6,105.5c-376.1,167.5-753.5,534.1-720.9,842.7
		c42.7,403.9,797.2,801.8,1897.9,711.2"/>
	<path class="st1" d="M2757.4,7054c-156.7-23.5-574.9-67-1021.8,126.3c-449.5,194.4-901.7,616.9-864.7,970.4
		c48.3,462.6,945.3,913.8,2258,803"/>
	<path class="st1" d="M2463.9,7353.4c-100.7-19.7-369.4-58-653,79.4c-285.2,138.2-569,446.1-540.3,709.7
		c37.6,344.9,618.8,693.4,1458.3,629.7"/>
	<linearGradient id="SVGID_1_" gradientUnits="userSpaceOnUse" x1="4618.3633" y1="13848.7324" x2="9168.3037" y2="5968.0039">
		<stop  offset="6.326090e-02" style="stop-color:#7F0000"/>
		<stop  offset="0.4907" style="stop-color:#810000"/>
		<stop  offset="0.6446" style="stop-color:#880100"/>
		<stop  offset="0.7544" style="stop-color:#930300"/>
		<stop  offset="0.8431" style="stop-color:#A40500"/>
		<stop  offset="0.9183" style="stop-color:#BA0800"/>
		<stop  offset="0.9831" style="stop-color:#D40B00"/>
	</linearGradient>
	<path class="st2" d="M2250.2,8400.7c127.4,955.4,106.3,1157.6,201.9,1982.2c107.4,925.7,165.2,1398.2,367.1,1874.1
		c347,817.5,713.6,973.7,807.6,1009.1c108.4,40.8,199.9,51,569,162.2c325,97.9,553.5,180.1,605.7,198.2
		c393.6,136.4,1351.5,294.5,2679.9,234.3c1241.9-56.3,1894.5-85.9,2661.5-486.5c304.6-159.1,728.5-386.2,1083-846.9
		c357.7-465.1,446.5-1006.8,624.1-2090.3c94.2-575.1,136.2-1110.2,220.3-2180.4c18-229,26.8-344.2,18.4-378.4
		c-398.4-1615.9-9567.5-1482.6-9893.5,54.1C2184.9,7980.7,2194.1,7980.1,2250.2,8400.7z"/>
	<linearGradient id="SVGID_2_" gradientUnits="userSpaceOnUse" x1="6134.3638" y1="5914.582" x2="7104.0176" y2="-207.5706">
		<stop  offset="6.179800e-02" style="stop-color:#8B272D"/>
		<stop  offset="0.5225" style="stop-color:#8D272D"/>
		<stop  offset="0.6884" style="stop-color:#94272D"/>
		<stop  offset="0.8067" style="stop-color:#9F272D"/>
		<stop  offset="0.9017" style="stop-color:#B0272D"/>
		<stop  offset="0.9831" style="stop-color:#C6272D"/>
	</linearGradient>
	<path class="st3" d="M11476.4,1244.3c395.2,1192.9-1459.1,2880.4-4141.6,3769.1S2157.2,5655.6,1762,4462.7
		S3221,1582.4,5903.6,693.6S11081.2,51.4,11476.4,1244.3z"/>
	<linearGradient id="SVGID_3_" gradientUnits="userSpaceOnUse" x1="6041.0352" y1="5134.4771" x2="6840.1948" y2="88.7814">
		<stop  offset="6.179800e-02" style="stop-color:#92272D"/>
		<stop  offset="0.5676" style="stop-color:#94272D"/>
		<stop  offset="0.7498" style="stop-color:#9B272D"/>
		<stop  offset="0.8791" style="stop-color:#A6272D"/>
		<stop  offset="0.9726" style="stop-color:#B5272D"/>
		<stop  offset="0.9831" style="stop-color:#C6272D"/>
	</linearGradient>
	<path class="st4" d="M10363.5,1311.9c334.4,1009.2-1150.9,2409.2-3317.5,3127s-4193.9,481.6-4528.3-527.6
		s1150.9-2409.2,3317.5-3127S10029.1,302.8,10363.5,1311.9z"/>
	<linearGradient id="SVGID_4_" gradientUnits="userSpaceOnUse" x1="2860.354" y1="2305.4509" x2="10018.876" y2="2305.4509">
		<stop  offset="6.179800e-02" style="stop-color:#A5272D"/>
		<stop  offset="0.6235" style="stop-color:#A7272D"/>
		<stop  offset="0.8256" style="stop-color:#AE272D"/>
		<stop  offset="0.9693" style="stop-color:#B9272D"/>
		<stop  offset="0.9831" style="stop-color:#BB272D"/>
	</linearGradient>
	<path class="st5" d="M9986,1130.5c265.7,801.9-1106.7,1978-3065.3,2626.9s-3761.7,524.9-4027.4-277.1S4000,1502.4,5958.6,853.5
		S9720.3,328.6,9986,1130.5z"/>
	
		<linearGradient id="SVGID_5_" gradientUnits="userSpaceOnUse" x1="5504.5298" y1="4963.165" x2="5965.98" y2="810.703" gradientTransform="matrix(0.7994 -2.683018e-02 -2.683018e-02 0.7273 1932.4679 135.3251)">
		<stop  offset="6.332226e-02" style="stop-color:#B2272D"/>
		<stop  offset="0.5631" style="stop-color:#B4272D"/>
		<stop  offset="0.7432" style="stop-color:#BB272D"/>
		<stop  offset="0.8711" style="stop-color:#C6272D"/>
		<stop  offset="0.9742" style="stop-color:#D7272D"/>
		<stop  offset="0.9831" style="stop-color:#D9272D"/>
	</linearGradient>
	<path class="st6" d="M9306,1131.4c190.9,576.1-937.7,1468.3-2520.8,1992.8s-3021.1,482.6-3212-93.4S4511,1562.4,6094,1038
		S9115.1,555.3,9306,1131.4z"/>
	
		<linearGradient id="SVGID_6_" gradientUnits="userSpaceOnUse" x1="6877.4238" y1="10476.2275" x2="8336.5254" y2="4067.2178" gradientTransform="matrix(0.9293 0.2773 -0.2745 0.9368 2062.6982 -1031.4628)">
		<stop  offset="6.326090e-02" style="stop-color:#333333"/>
		<stop  offset="0.609" style="stop-color:#313131"/>
		<stop  offset="0.8053" style="stop-color:#2A2A2A"/>
		<stop  offset="0.945" style="stop-color:#1F1F1F"/>
		<stop  offset="0.9817" style="stop-color:#1A1A1A"/>
	</linearGradient>
	<path class="st7" d="M12090.9,7728.9c39.8,1227.1-2146.4,2293.8-4883.1,2382.7s-4987.6-833.9-5027.4-2060.9
		c-39.8-1227.1,2146.4-2293.8,4883.1-2382.7S12051,6501.8,12090.9,7728.9z"/>
	
		<linearGradient id="SVGID_7_" gradientUnits="userSpaceOnUse" x1="7209.2139" y1="10588.4648" x2="8668.3154" y2="4179.4551" gradientTransform="matrix(0.8913 0.2557 -0.2644 0.8676 2072.0098 -522.6027)">
		<stop  offset="6.326090e-02" style="stop-color:#2A0000"/>
		<stop  offset="0.5534" style="stop-color:#2C0000"/>
		<stop  offset="0.7299" style="stop-color:#330000"/>
		<stop  offset="0.8557" style="stop-color:#3E0000"/>
		<stop  offset="0.9568" style="stop-color:#4F0000"/>
		<stop  offset="0.9831" style="stop-color:#550000"/>
	</linearGradient>
	<path class="st8" d="M11950.7,7759.2c36.9,1136-2062,2126-4688.1,2211.3c-2626,85.3-4784.8-766.6-4821.6-1902.6
		c-36.9-1136,2062-2126,4688.1-2211.3C9755.1,5771.4,11913.8,6623.2,11950.7,7759.2z"/>
</g>
<g id="Layer_1">
	<g>
		<g>
			<path class="st9" d="M9171.9,8524.6c6.4,0,6.4-10,0-10C9165.4,8514.6,9165.4,8524.6,9171.9,8524.6L9171.9,8524.6z"/>
		</g>
	</g>
	<path class="st10" d="M6440.6,1886.9"/>
	<path class="st11" d="M5842.2,1228.1c0.3,38.9,35.3,33.3,121.6,173.2c37.6,61,64.4,116.3,142.2,247.2
		c38.6,65.1,46.2,75.2,61.8,86.5c80.7,58.4,199,18.4,253.4,0c50-16.9,181.2-61.2,234.9-179.2c21.6-47.6,7.4-56.1,18.5-185.4
		c12.4-144.6,23.6-260.4,92.7-364.7c52.4-79,96.7-89.1,90.1-107.3C6826.6,812.9,5840.8,1021.9,5842.2,1228.1z"/>
	<linearGradient id="SVGID_8_" gradientUnits="userSpaceOnUse" x1="5092.1372" y1="630.276" x2="7289.9287" y2="630.276">
		<stop  offset="6.332226e-02" style="stop-color:#B2272D"/>
		<stop  offset="0.5631" style="stop-color:#B4272D"/>
		<stop  offset="0.7432" style="stop-color:#BB272D"/>
		<stop  offset="0.8711" style="stop-color:#C6272D"/>
		<stop  offset="0.9742" style="stop-color:#D7272D"/>
		<stop  offset="0.9831" style="stop-color:#D9272D"/>
	</linearGradient>
	<path class="st12" d="M7280,271.9c78.9,225.6-335.3,572.6-383.2,611.9c-86.2,70.7-250.4,186.7-532.5,264.3
		c-281.8,77.5-502.8,85.4-553.5,84.6c-172.1-2.6-636.7-9.5-708.7-199.4c-85.3-224.9,386.5-691.2,915.7-876.2
		C6619.2-53.1,7184.3-1.7,7280,271.9z"/>
	<linearGradient id="SVGID_9_" gradientUnits="userSpaceOnUse" x1="5293.605" y1="630.276" x2="7088.4609" y2="630.276">
		<stop  offset="6.179800e-02" style="stop-color:#3D0000"/>
		<stop  offset="0.5194" style="stop-color:#3B0000"/>
		<stop  offset="0.6842" style="stop-color:#340000"/>
		<stop  offset="0.8017" style="stop-color:#290000"/>
		<stop  offset="0.896" style="stop-color:#180000"/>
		<stop  offset="0.9765" style="stop-color:#020000"/>
		<stop  offset="0.9831" style="stop-color:#000000"/>
	</linearGradient>
	<path class="st13" d="M7079.4,319.7c69.8,199.8-271.3,500.8-761.9,672.3s-945,148.6-1014.8-51.2s271.3-500.8,761.9-672.3
		S7009.5,119.9,7079.4,319.7z"/>
</g>
</svg>
