<?xml version="1.0" encoding="utf-8"?>
<!-- Generator: Adobe Illustrator 24.1.0, SVG Export Plug-In . SVG Version: 6.00 Build 0)  -->
<svg version="1.1" id="Layer_1" xmlns="http://www.w3.org/2000/svg" xmlns:xlink="http://www.w3.org/1999/xlink" x="0px" y="0px"
	 viewBox="0 0 8192 8192" style="enable-background:new 0 0 8192 8192;" xml:space="preserve">
<style type="text/css">
	.st0{fill:none;stroke:#9C0000;stroke-width:164.9778;stroke-miterlimit:5.6889;}
	.st1{fill:none;stroke:#1A1A1A;stroke-width:56.8889;stroke-miterlimit:5.6889;}
	.st2{fill:url(#SVGID_1_);stroke:#1A1A1A;stroke-width:34.1333;stroke-miterlimit:5.6889;}
	.st3{fill:url(#SVGID_2_);stroke:#1A1A1A;stroke-width:34.1333;stroke-miterlimit:5.6889;}
	.st4{fill:url(#SVGID_3_);stroke:#4F272D;stroke-width:34.1333;stroke-miterlimit:5.6889;}
	.st5{fill:#FFFFFF;}
	.st6{fill:url(#SVGID_4_);stroke:#4F272D;stroke-width:34.1333;stroke-miterlimit:5.6889;}
	.st7{fill:url(#SVGID_5_);}
	.st8{fill:url(#SVGID_6_);}
	.st9{fill:url(#SVGID_7_);}
	.st10{fill:#4D4D4D;}
	.st11{fill:#333333;stroke:#1A1A1A;stroke-width:34.1333;stroke-miterlimit:5.6889;}
	.st12{fill:url(#SVGID_8_);stroke:#1A1A1A;stroke-width:34.1333;stroke-miterlimit:5.6889;}
	.st13{fill:url(#SVGID_9_);}
</style>
<g id="Layer_6">
</g>
<g id="Layer_5">
</g>
<g id="Layer_3">
</g>
<g id="Layer_4">
	<path class="st0" d="M6926.6,3133.9c86.1,23.7,316,71.7,565.7-69.1c251.2-141.6,507.9-465.9,493.5-750.2
		c-18.7-372.1-505.7-761.7-1231.6-714.1"/>
	<path class="st1" d="M6851.4,3268.7c102.5,26.6,376.5,79.9,674.9-83c300-163.9,607.2-537.1,591-862.8
		c-21.1-426.2-600.5-869.2-1466.2-809.8"/>
	<path class="st1" d="M7051.4,3003.4c65.8,21.3,241.5,65.1,431.3-51.8c190.7-117.7,384.5-391.2,371.6-634
		c-16.8-317.7-390.8-656.4-944.4-625"/>
	<path class="st0" d="M1171,1852.3c-86.5-19.5-317.5-56.2-563.6,96.9c-247.5,153.9-495.8,490.5-474.3,774
		c28.1,371,524.5,736.4,1248.8,653.2"/>
	<path class="st1" d="M1242.7,1713.7c-103.1-21.6-378.3-61.5-672.3,116.1C274.6,2008.3-23,2396.2,1.4,2720.9
		c31.8,424.9,622,839.4,1485.8,737.5"/>
	<path class="st1" d="M1049.5,1988.8c-66.3-18.1-243-53.3-429.7,73c-187.6,126.9-374.4,409.7-355.5,651.8
		c24.8,316.8,407.1,636.9,959.5,578.3"/>
	
		<linearGradient id="SVGID_1_" gradientUnits="userSpaceOnUse" x1="-1964.3538" y1="410.4868" x2="4469.8008" y2="-10733.7949" gradientTransform="matrix(0.5689 0 0 0.5689 3230.7043 7358.6348)">
		<stop  offset="6.326090e-02" style="stop-color:#7F0000"/>
		<stop  offset="0.4907" style="stop-color:#810000"/>
		<stop  offset="0.6446" style="stop-color:#880100"/>
		<stop  offset="0.7544" style="stop-color:#930300"/>
		<stop  offset="0.8431" style="stop-color:#A40500"/>
		<stop  offset="0.9183" style="stop-color:#BA0800"/>
		<stop  offset="0.9831" style="stop-color:#D40B00"/>
	</linearGradient>
	<path class="st2" d="M908.9,2950.6c83.9,877.5,70,1063.1,132.9,1820.6c70.7,850.2,108.7,1284.1,241.5,1721.3
		c228.3,750.9,469.6,894.2,531.3,926.9c71.4,37.5,131.5,46.8,374.4,149c213.9,89.9,364.2,165.5,398.6,182.1
		c259,125.3,889.3,270.4,1763.4,215.2c817.1-51.7,1246.6-78.9,1751.2-446.9c200.4-146.1,479.3-354.7,712.6-777.8
		c235.4-427.2,293.8-924.8,410.6-1919.7c62-528.2,89.6-1019.7,144.9-2002.6c11.8-210.4,17.6-316.1,12.1-347.6
		C7120.4,987,1087.2,1109.5,872.7,2520.9C866,2564.8,872,2564.3,908.9,2950.6z"/>
	
		<linearGradient id="SVGID_2_" gradientUnits="userSpaceOnUse" x1="-3590.0671" y1="-727.6548" x2="-1615.9167" y2="-9398.9854" gradientTransform="matrix(0.5287 0.1578 -0.1562 0.5329 4708.7715 5590.3921)">
		<stop  offset="6.326090e-02" style="stop-color:#333333"/>
		<stop  offset="0.609" style="stop-color:#313131"/>
		<stop  offset="0.8053" style="stop-color:#2A2A2A"/>
		<stop  offset="0.945" style="stop-color:#1F1F1F"/>
		<stop  offset="0.9817" style="stop-color:#1A1A1A"/>
	</linearGradient>
	<path class="st3" d="M7383.9,2333.6c26.1,1127-1412.3,2106.7-3213.1,2188.4C2370.3,4603.7,889.1,3756.1,863,2629.2
		c-26.1-1127,1412.3-2106.7,3213-2188.4C5876.6,359.1,7357.7,1206.6,7383.9,2333.6z"/>
	
		<linearGradient id="SVGID_3_" gradientUnits="userSpaceOnUse" x1="-4196.6709" y1="-1745.9736" x2="-2222.0894" y2="-10419.1992" gradientTransform="matrix(0.5071 0.1455 -0.1504 0.4936 4875.6455 5972.4883)">
		<stop  offset="6.326090e-02" style="stop-color:#2A0000"/>
		<stop  offset="0.5534" style="stop-color:#2C0000"/>
		<stop  offset="0.7299" style="stop-color:#330000"/>
		<stop  offset="0.8557" style="stop-color:#3E0000"/>
		<stop  offset="0.9568" style="stop-color:#4F0000"/>
		<stop  offset="0.9831" style="stop-color:#550000"/>
	</linearGradient>
	<path class="st4" d="M7291.6,2361.4c24.3,1043.4-1356.7,1952.7-3084.7,2031c-1727.9,78.3-3148.3-704.1-3172.6-1747.5
		c-24.3-1043.4,1356.7-1952.7,3084.7-2031C5847,535.8,7267.4,1318.1,7291.6,2361.4z"/>
</g>
<g id="Layer_1_1_">
	<g>
		<g>
			<path class="st5" d="M4694.4,8191.8c4,1.6,5.9-7.1,1.9-8.9C4692.2,8181.3,4690.3,8190.2,4694.4,8191.8L4694.4,8191.8z"/>
		</g>
	</g>
	
		<linearGradient id="SVGID_4_" gradientUnits="userSpaceOnUse" x1="-1710.3994" y1="-1896.9047" x2="-362.1563" y2="-10409.376" gradientTransform="matrix(0.5462 0.159 -0.159 0.5462 3712.1975 6061.1904)">
		<stop  offset="6.179800e-02" style="stop-color:#8B272D"/>
		<stop  offset="0.5225" style="stop-color:#8D272D"/>
		<stop  offset="0.6884" style="stop-color:#94272D"/>
		<stop  offset="0.8067" style="stop-color:#9F272D"/>
		<stop  offset="0.9017" style="stop-color:#B0272D"/>
		<stop  offset="0.9831" style="stop-color:#C6272D"/>
	</linearGradient>
	<path class="st6" d="M7489.1,2363.3c30.3,1153.4-1451.5,2165.5-3309.6,2260.7C2321.3,4719.1,790.3,3861.4,760,2707.8
		C729.7,1554.3,2211.5,542.4,4069.7,447.1C5927.9,352,7458.8,1209.9,7489.1,2363.3z"/>
	
		<linearGradient id="SVGID_5_" gradientUnits="userSpaceOnUse" x1="-1838.5223" y1="-3023.7661" x2="-719.3295" y2="-10090.0713" gradientTransform="matrix(0.5462 0.159 -0.159 0.5462 3712.1975 6061.1904)">
		<stop  offset="6.179800e-02" style="stop-color:#92272D"/>
		<stop  offset="0.5676" style="stop-color:#94272D"/>
		<stop  offset="0.7498" style="stop-color:#9B272D"/>
		<stop  offset="0.8791" style="stop-color:#A6272D"/>
		<stop  offset="0.9726" style="stop-color:#B5272D"/>
		<stop  offset="0.9831" style="stop-color:#C6272D"/>
	</linearGradient>
	<path class="st7" d="M6773.6,2137.3c25.7,975.8-1170.1,1829.2-2671,1906s-2738.2-651.9-2763.8-1627.7
		c-25.7-975.8,1170.1-1829.2,2671-1906S6747.9,1161.5,6773.6,2137.3z"/>
	
		<linearGradient id="SVGID_6_" gradientUnits="userSpaceOnUse" x1="-5471.2593" y1="-7040.4238" x2="2836.2214" y2="-7040.4238" gradientTransform="matrix(0.5462 0.159 -0.159 0.5462 3712.1975 6061.1904)">
		<stop  offset="6.179800e-02" style="stop-color:#A5272D"/>
		<stop  offset="0.6235" style="stop-color:#A7272D"/>
		<stop  offset="0.8256" style="stop-color:#AE272D"/>
		<stop  offset="0.9693" style="stop-color:#B9272D"/>
		<stop  offset="0.9831" style="stop-color:#BB272D"/>
	</linearGradient>
	<path class="st8" d="M6568.5,1880.4c20.4,775.4-1062.9,1460.3-2419.6,1529.7S1675.8,2907.4,1655.5,2132
		c-20.4-775.4,1062.9-1460.1,2419.6-1529.5C5431.7,532.8,6548.1,1105,6568.5,1880.4z"/>
	
		<linearGradient id="SVGID_7_" gradientUnits="userSpaceOnUse" x1="-6669.9585" y1="-7963.207" x2="-6023.4741" y2="-13780.7373" gradientTransform="matrix(0.4409 0.1124 -0.1303 0.393 5534.813 6794.3545)">
		<stop  offset="6.332226e-02" style="stop-color:#B2272D"/>
		<stop  offset="0.5631" style="stop-color:#B4272D"/>
		<stop  offset="0.7432" style="stop-color:#BB272D"/>
		<stop  offset="0.8711" style="stop-color:#C6272D"/>
		<stop  offset="0.9742" style="stop-color:#D7272D"/>
		<stop  offset="0.9831" style="stop-color:#D9272D"/>
	</linearGradient>
	<path class="st9" d="M6138.7,1706.6c14.7,557-862.4,1054.1-1959.1,1110.3S2182.3,2467,2167.6,1910
		c-14.7-557,862.5-1054.2,1959.1-1110.3S6124,1149.6,6138.7,1706.6z"/>
	<path class="st10" d="M4189.5,1637.3"/>
	<path class="st11" d="M3932.6,902.7c-6.9,34.4,16.2,38.4,45,183.9c12.5,63.4,19.3,119.1,44.4,254.4c12.4,67.3,15.4,78.1,23.1,92.2
		c40.3,72.2,122.4,67.3,160.1,65.1c34.7-2.1,125.7-7.4,181.4-97.7c22.4-36.5,15-47.6,45.8-158.7c34.5-124.3,62.8-223.6,125.6-297.9
		c47.7-56.2,77.5-53.8,76.7-71.5C4630.9,789.2,3969.6,720.6,3932.6,902.7z"/>
	
		<linearGradient id="SVGID_8_" gradientUnits="userSpaceOnUse" x1="-3089.3123" y1="-9707.8848" x2="-544.7269" y2="-9707.8848" gradientTransform="matrix(0.5462 0.159 -0.159 0.5462 3712.1975 6061.1904)">
		<stop  offset="6.332226e-02" style="stop-color:#B2272D"/>
		<stop  offset="0.5631" style="stop-color:#B4272D"/>
		<stop  offset="0.7432" style="stop-color:#BB272D"/>
		<stop  offset="0.8711" style="stop-color:#C6272D"/>
		<stop  offset="0.9742" style="stop-color:#D7272D"/>
		<stop  offset="0.9831" style="stop-color:#D9272D"/>
	</linearGradient>
	<path class="st12" d="M5016.8,428.6c8.3,219.2-317.1,419-354.6,441.2c-67.4,40.2-192.6,100.4-385,96.4
		c-192.2-4-333.3-53.8-365.3-67.5c-108.3-46.5-400.5-171.8-411.1-357.8c-12.5-220.2,371.3-510.3,739.7-537.6
		C4659.1-27.7,5006.6,162.8,5016.8,428.6z"/>
	
		<linearGradient id="SVGID_9_" gradientUnits="userSpaceOnUse" x1="-2859.9434" y1="-9715.7959" x2="-780.1967" y2="-9715.7959" gradientTransform="matrix(0.5462 0.159 -0.159 0.5462 3712.1975 6061.1904)">
		<stop  offset="6.179800e-02" style="stop-color:#3D0000"/>
		<stop  offset="0.5194" style="stop-color:#3B0000"/>
		<stop  offset="0.6842" style="stop-color:#340000"/>
		<stop  offset="0.8017" style="stop-color:#290000"/>
		<stop  offset="0.896" style="stop-color:#180000"/>
		<stop  offset="0.9765" style="stop-color:#020000"/>
		<stop  offset="0.9831" style="stop-color:#000000"/>
	</linearGradient>
	<path class="st13" d="M4881.3,419.2c7.4,194.1-263.5,372-605,397.3c-341.4,25.3-624.3-111.6-631.7-305.6
		c-7.4-194.1,263.5-372,605-397.3C4591.1,88.2,4873.9,225.1,4881.3,419.2z"/>
</g>
</svg>
